<?xml version="1.0" encoding="UTF-8" standalone="no"?>
<!DOCTYPE svg PUBLIC "-//W3C//DTD SVG 1.1//EN" "http://www.w3.org/Graphics/SVG/1.1/DTD/svg11.dtd">
<svg xmlns="http://www.w3.org/2000/svg" version="1.1" viewBox="0.00 0.00 176.00 134.00">
<g stroke-width="2.00" fill="none" stroke-linecap="butt">
<path stroke="#afb2b7" vector-effect="non-scaling-stroke" d="
  M 111.18 23.21
  C 110.53 18.41 109.38 8.25 104.03 6.65
  C 95.38 4.06 91.50 21.94 89.65 27.27
  Q 89.36 28.12 89.06 27.27
  C 88.29 25.11 88.05 22.77 85.17 22.72
  C 83.17 22.68 81.70 24.91 81.08 26.56
  C 77.99 34.83 75.50 46.33 68.29 51.66
  A 1.39 1.37 -59.9 0 1 67.31 51.93
  C 60.04 51.20 59.38 36.12 60.30 31.09
  A 0.70 0.69 -85.9 0 1 60.96 30.51
  C 65.46 30.33 70.53 29.72 72.84 25.97
  A 2.35 2.34 -55.8 0 0 72.25 22.86
  C 67.92 19.63 60.54 22.50 57.20 25.94
  Q 56.79 26.36 56.36 25.96
  Q 53.31 23.12 52.83 18.94
  Q 52.76 18.37 53.22 18.02
  Q 57.15 14.97 59.30 10.57
  C 61.09 6.90 60.61 3.28 55.72 3.08
  C 47.54 2.75 45.98 11.64 46.91 17.84
  Q 46.98 18.31 46.56 18.55
  Q 39.49 22.43 34.21 16.80
  A 1.15 1.14 -65.8 0 0 32.23 17.56
  C 32.14 20.52 37.50 21.78 39.59 22.02
  C 41.93 22.29 44.61 21.62 47.15 21.23
  Q 47.68 21.15 47.89 21.65
  Q 49.92 26.67 54.88 28.89
  A 0.61 0.61 0.0 0 1 55.21 29.62
  C 52.68 38.07 54.78 54.97 66.79 53.92
  C 71.84 53.49 75.80 48.69 77.33 44.25
  Q 80.06 36.32 82.90 28.43
  Q 83.36 27.16 83.96 26.25
  A 0.45 0.45 0.0 0 1 84.78 26.49
  L 85.15 46.52
  A 1.02 1.02 0.0 0 0 85.70 47.41
  Q 88.60 48.95 91.16 47.02
  Q 91.58 46.71 91.64 46.19
  Q 93.49 30.13 98.25 16.48
  Q 99.23 13.66 101.70 10.25
  Q 102.07 9.73 102.31 10.33
  C 105.63 18.78 102.01 29.33 104.61 41.48
  A 1.12 1.11 -84.1 0 0 105.24 42.26
  Q 107.96 43.45 110.59 42.17
  A 1.18 1.18 0.0 0 0 111.22 41.34
  C 112.52 34.25 115.33 24.08 121.05 18.64
  A 0.48 0.48 0.0 0 1 121.83 18.83
  Q 122.99 22.16 122.80 25.76
  Q 122.34 34.48 122.22 43.19
  C 122.17 46.12 121.99 48.91 124.44 49.93
  Q 128.38 51.56 130.38 49.10
  C 133.61 45.11 130.62 20.83 126.74 17.26
  C 123.02 13.84 117.50 16.01 114.70 19.46
  Q 113.17 21.35 111.75 23.35
  Q 111.29 24.00 111.18 23.21"
/>
<path stroke="#afb2b7" vector-effect="non-scaling-stroke" d="
  M 61.80 56.62
  C 57.85 55.54 54.90 53.82 53.16 49.97
  Q 52.95 49.51 52.44 49.49
  Q 52.31 49.49 52.18 49.51
  Q 51.51 49.60 51.73 50.25
  Q 54.05 57.02 60.96 58.80
  A 1.06 1.06 0.0 0 0 62.29 57.77
  L 62.29 57.26
  A 0.66 0.66 0.0 0 0 61.80 56.62"
/>
<path stroke="#afb2b7" vector-effect="non-scaling-stroke" d="
  M 79.87 90.54
  C 84.21 97.15 94.10 97.28 98.48 90.71
  C 102.67 84.42 106.89 76.82 111.99 71.30
  A 0.88 0.88 0.0 0 1 113.52 71.90
  Q 113.55 81.63 112.99 90.78
  C 112.62 96.89 112.54 109.62 120.83 110.82
  C 135.06 112.89 137.56 85.33 137.38 77.27
  Q 137.37 76.76 137.88 76.72
  Q 152.07 75.63 157.98 63.55
  Q 159.43 60.58 159.45 58.77
  C 159.50 53.67 152.17 53.74 148.72 54.93
  A 1.75 1.75 0.0 0 0 148.09 57.86
  Q 153.01 62.50 148.95 68.74
  Q 145.17 74.55 137.42 74.63
  Q 136.95 74.64 136.86 74.18
  C 135.93 69.46 133.44 63.26 127.68 63.36
  C 121.79 63.48 120.94 68.69 124.67 72.38
  Q 127.66 75.34 132.06 76.29
  Q 132.60 76.41 132.61 76.97
  C 132.76 84.87 130.13 100.55 123.54 106.30
  Q 123.02 106.76 122.79 106.10
  Q 120.90 100.74 120.72 95.75
  Q 120.30 83.56 118.42 73.32
  Q 117.56 68.65 113.26 68.49
  C 110.58 68.40 108.04 70.55 106.52 72.53
  Q 100.24 80.75 94.00 89.00
  Q 92.31 91.23 89.73 92.54
  A 0.72 0.72 0.0 0 1 88.87 92.38
  Q 84.77 87.92 84.77 81.79
  Q 84.77 81.39 85.15 81.26
  C 91.59 79.06 100.48 70.68 96.07 63.03
  Q 94.96 61.09 93.03 60.59
  C 77.94 56.63 77.90 75.30 75.77 84.74
  C 74.33 91.14 73.36 98.38 70.82 104.43
  A 0.50 0.50 0.0 0 1 69.87 104.36
  Q 66.96 93.20 64.16 82.03
  Q 62.41 75.04 60.20 71.56
  Q 57.95 68.04 56.52 67.50
  C 51.73 65.68 52.63 60.85 46.50 62.32
  A 1.45 1.45 0.0 0 0 45.83 64.78
  L 48.14 66.97
  A 1.43 1.42 -68.2 0 1 48.58 68.00
  Q 48.62 77.66 45.39 86.76
  Q 45.19 87.31 44.82 86.86
  Q 40.99 82.17 34.76 82.70
  A 0.55 0.55 0.0 0 1 34.17 82.08
  Q 35.61 70.47 31.43 60.12
  C 29.55 55.47 24.64 54.24 21.33 58.10
  C 17.29 62.80 15.34 72.27 14.54 78.20
  A 0.41 0.41 0.0 0 1 13.73 78.25
  Q 12.76 74.63 9.01 74.84
  A 1.03 1.02 85.0 0 0 8.05 75.99
  Q 11.12 100.93 14.97 125.51
  Q 15.36 128.00 16.06 130.49
  A 1.23 1.22 -86.3 0 0 16.73 131.26
  Q 19.79 132.60 22.92 131.44
  Q 23.45 131.24 23.50 130.68
  Q 23.60 129.57 23.40 128.00
  Q 21.45 112.80 19.82 103.49
  C 17.41 89.75 18.04 72.19 25.06 59.74
  A 0.57 0.57 0.0 0 1 26.12 59.90
  Q 28.78 72.61 26.14 85.50
  C 25.26 89.78 22.42 92.24 22.30 97.13
  Q 22.26 98.73 23.80 99.13
  C 26.71 99.88 28.61 99.32 30.03 96.54
  Q 32.39 91.92 33.42 86.76
  A 1.31 1.31 0.0 0 1 33.93 85.96
  C 38.84 82.37 41.03 92.33 41.54 94.98
  Q 41.92 96.90 41.13 98.97
  Q 38.61 105.64 35.59 115.02
  C 34.72 117.70 33.91 120.76 36.21 122.94
  C 38.94 125.53 45.36 125.59 47.69 122.18
  C 52.47 115.18 50.89 103.34 48.47 95.75
  C 48.22 94.98 48.42 93.13 48.78 92.12
  Q 52.42 81.89 53.63 71.20
  A 0.31 0.31 0.0 0 1 54.22 71.09
  C 58.20 79.16 59.00 88.87 61.10 97.55
  C 62.31 102.56 64.60 110.59 71.12 109.44
  C 77.62 108.29 78.50 95.48 79.44 90.63
  Q 79.55 90.07 79.87 90.54"
/>
<path stroke="#afb2b7" vector-effect="non-scaling-stroke" d="
  M 162.45 56.15
  C 162.76 60.07 161.51 61.48 160.57 64.87
  A 0.71 0.71 0.0 0 0 161.78 65.53
  Q 165.30 61.62 164.85 56.23
  A 0.79 0.79 0.0 0 0 164.10 55.51
  L 163.12 55.46
  A 0.65 0.64 -1.2 0 0 162.45 56.15"
/>
<path stroke="#afb2b7" vector-effect="non-scaling-stroke" d="
  M 151.81 93.59
  Q 158.78 91.12 163.91 84.46
  C 167.97 79.18 165.16 73.58 158.47 74.51
  C 148.30 75.92 143.14 89.24 142.26 97.48
  C 141.50 104.61 143.62 111.92 149.81 115.88
  C 155.79 119.71 163.93 118.85 168.51 112.97
  C 170.52 110.39 173.64 106.46 173.22 102.87
  A 1.21 1.19 -75.8 0 0 172.72 102.02
  C 170.25 100.27 164.24 99.85 165.26 104.74
  C 167.37 114.83 156.13 120.67 152.20 108.76
  Q 149.85 101.65 151.22 94.29
  Q 151.31 93.77 151.81 93.59"
/>
<path stroke="#afb2b7" vector-effect="non-scaling-stroke" d="
  M 52.7829 13.3058
  A 3.91 1.03 108.6 0 0 55.0062 9.9285
  A 3.91 1.03 108.6 0 0 55.2771 5.8942
  A 3.91 1.03 108.6 0 0 53.0538 9.2715
  A 3.91 1.03 108.6 0 0 52.7829 13.3058"
/>
<path stroke="#afb2b7" vector-effect="non-scaling-stroke" d="
  M 69.34 23.97
  C 66.48 22.70 63.09 25.41 61.86 27.78
  Q 61.54 28.40 62.23 28.47
  C 64.59 28.73 69.38 28.03 69.83 24.85
  A 0.85 0.83 -74.7 0 0 69.34 23.97"
/>
<path stroke="#afb2b7" vector-effect="non-scaling-stroke" d="
  M 85.03 78.44
  C 89.70 75.78 95.17 68.39 90.74 63.30
  A 1.14 1.13 42.7 0 0 88.97 63.37
  Q 84.15 69.92 84.55 78.17
  Q 84.57 78.70 85.03 78.44"
/>
<path stroke="#afb2b7" vector-effect="non-scaling-stroke" d="
  M 127.97 66.66
  C 126.42 69.13 129.17 72.26 131.27 73.37
  A 0.36 0.36 0.0 0 0 131.79 72.98
  Q 131.07 69.38 128.67 66.61
  Q 128.29 66.16 127.97 66.66"
/>
<path stroke="#afb2b7" vector-effect="non-scaling-stroke" d="
  M 41.55 114.04
  C 41.38 114.80 41.16 115.67 41.35 116.39
  A 0.14 0.14 0.0 0 0 41.63 116.38
  L 42.05 113.50
  Q 42.12 113.06 41.85 113.41
  Q 41.63 113.70 41.55 114.04"
/>
<path stroke="#afb2b7" vector-effect="non-scaling-stroke" d="
  M 159.63 77.09
  C 155.54 79.55 153.18 84.83 152.24 89.25
  A 0.42 0.42 0.0 0 0 152.87 89.70
  C 156.00 87.77 164.99 81.32 160.51 77.18
  A 0.75 0.74 -38.6 0 0 159.63 77.09"
/>
</g>
<path fill="#ffffff" d="
  M 0.00 0.00
  L 176.00 0.00
  L 176.00 134.00
  L 0.00 134.00
  L 0.00 0.00
  Z
  M 111.18 23.21
  C 110.53 18.41 109.38 8.25 104.03 6.65
  C 95.38 4.06 91.50 21.94 89.65 27.27
  Q 89.36 28.12 89.06 27.27
  C 88.29 25.11 88.05 22.77 85.17 22.72
  C 83.17 22.68 81.70 24.91 81.08 26.56
  C 77.99 34.83 75.50 46.33 68.29 51.66
  A 1.39 1.37 -59.9 0 1 67.31 51.93
  C 60.04 51.20 59.38 36.12 60.30 31.09
  A 0.70 0.69 -85.9 0 1 60.96 30.51
  C 65.46 30.33 70.53 29.72 72.84 25.97
  A 2.35 2.34 -55.8 0 0 72.25 22.86
  C 67.92 19.63 60.54 22.50 57.20 25.94
  Q 56.79 26.36 56.36 25.96
  Q 53.31 23.12 52.83 18.94
  Q 52.76 18.37 53.22 18.02
  Q 57.15 14.97 59.30 10.57
  C 61.09 6.90 60.61 3.28 55.72 3.08
  C 47.54 2.75 45.98 11.64 46.91 17.84
  Q 46.98 18.31 46.56 18.55
  Q 39.49 22.43 34.21 16.80
  A 1.15 1.14 -65.8 0 0 32.23 17.56
  C 32.14 20.52 37.50 21.78 39.59 22.02
  C 41.93 22.29 44.61 21.62 47.15 21.23
  Q 47.68 21.15 47.89 21.65
  Q 49.92 26.67 54.88 28.89
  A 0.61 0.61 0.0 0 1 55.21 29.62
  C 52.68 38.07 54.78 54.97 66.79 53.92
  C 71.84 53.49 75.80 48.69 77.33 44.25
  Q 80.06 36.32 82.90 28.43
  Q 83.36 27.16 83.96 26.25
  A 0.45 0.45 0.0 0 1 84.78 26.49
  L 85.15 46.52
  A 1.02 1.02 0.0 0 0 85.70 47.41
  Q 88.60 48.95 91.16 47.02
  Q 91.58 46.71 91.64 46.19
  Q 93.49 30.13 98.25 16.48
  Q 99.23 13.66 101.70 10.25
  Q 102.07 9.73 102.31 10.33
  C 105.63 18.78 102.01 29.33 104.61 41.48
  A 1.12 1.11 -84.1 0 0 105.24 42.26
  Q 107.96 43.45 110.59 42.17
  A 1.18 1.18 0.0 0 0 111.22 41.34
  C 112.52 34.25 115.33 24.08 121.05 18.64
  A 0.48 0.48 0.0 0 1 121.83 18.83
  Q 122.99 22.16 122.80 25.76
  Q 122.34 34.48 122.22 43.19
  C 122.17 46.12 121.99 48.91 124.44 49.93
  Q 128.38 51.56 130.38 49.10
  C 133.61 45.11 130.62 20.83 126.74 17.26
  C 123.02 13.84 117.50 16.01 114.70 19.46
  Q 113.17 21.35 111.75 23.35
  Q 111.29 24.00 111.18 23.21
  Z
  M 61.80 56.62
  C 57.85 55.54 54.90 53.82 53.16 49.97
  Q 52.95 49.51 52.44 49.49
  Q 52.31 49.49 52.18 49.51
  Q 51.51 49.60 51.73 50.25
  Q 54.05 57.02 60.96 58.80
  A 1.06 1.06 0.0 0 0 62.29 57.77
  L 62.29 57.26
  A 0.66 0.66 0.0 0 0 61.80 56.62
  Z
  M 79.87 90.54
  C 84.21 97.15 94.10 97.28 98.48 90.71
  C 102.67 84.42 106.89 76.82 111.99 71.30
  A 0.88 0.88 0.0 0 1 113.52 71.90
  Q 113.55 81.63 112.99 90.78
  C 112.62 96.89 112.54 109.62 120.83 110.82
  C 135.06 112.89 137.56 85.33 137.38 77.27
  Q 137.37 76.76 137.88 76.72
  Q 152.07 75.63 157.98 63.55
  Q 159.43 60.58 159.45 58.77
  C 159.50 53.67 152.17 53.74 148.72 54.93
  A 1.75 1.75 0.0 0 0 148.09 57.86
  Q 153.01 62.50 148.95 68.74
  Q 145.17 74.55 137.42 74.63
  Q 136.95 74.64 136.86 74.18
  C 135.93 69.46 133.44 63.26 127.68 63.36
  C 121.79 63.48 120.94 68.69 124.67 72.38
  Q 127.66 75.34 132.06 76.29
  Q 132.60 76.41 132.61 76.97
  C 132.76 84.87 130.13 100.55 123.54 106.30
  Q 123.02 106.76 122.79 106.10
  Q 120.90 100.74 120.72 95.75
  Q 120.30 83.56 118.42 73.32
  Q 117.56 68.65 113.26 68.49
  C 110.58 68.40 108.04 70.55 106.52 72.53
  Q 100.24 80.75 94.00 89.00
  Q 92.31 91.23 89.73 92.54
  A 0.72 0.72 0.0 0 1 88.87 92.38
  Q 84.77 87.92 84.77 81.79
  Q 84.77 81.39 85.15 81.26
  C 91.59 79.06 100.48 70.68 96.07 63.03
  Q 94.96 61.09 93.03 60.59
  C 77.94 56.63 77.90 75.30 75.77 84.74
  C 74.33 91.14 73.36 98.38 70.82 104.43
  A 0.50 0.50 0.0 0 1 69.87 104.36
  Q 66.96 93.20 64.16 82.03
  Q 62.41 75.04 60.20 71.56
  Q 57.95 68.04 56.52 67.50
  C 51.73 65.68 52.63 60.85 46.50 62.32
  A 1.45 1.45 0.0 0 0 45.83 64.78
  L 48.14 66.97
  A 1.43 1.42 -68.2 0 1 48.58 68.00
  Q 48.62 77.66 45.39 86.76
  Q 45.19 87.31 44.82 86.86
  Q 40.99 82.17 34.76 82.70
  A 0.55 0.55 0.0 0 1 34.17 82.08
  Q 35.61 70.47 31.43 60.12
  C 29.55 55.47 24.64 54.24 21.33 58.10
  C 17.29 62.80 15.34 72.27 14.54 78.20
  A 0.41 0.41 0.0 0 1 13.73 78.25
  Q 12.76 74.63 9.01 74.84
  A 1.03 1.02 85.0 0 0 8.05 75.99
  Q 11.12 100.93 14.97 125.51
  Q 15.36 128.00 16.06 130.49
  A 1.23 1.22 -86.3 0 0 16.73 131.26
  Q 19.79 132.60 22.92 131.44
  Q 23.45 131.24 23.50 130.68
  Q 23.60 129.57 23.40 128.00
  Q 21.45 112.80 19.82 103.49
  C 17.41 89.75 18.04 72.19 25.06 59.74
  A 0.57 0.57 0.0 0 1 26.12 59.90
  Q 28.78 72.61 26.14 85.50
  C 25.26 89.78 22.42 92.24 22.30 97.13
  Q 22.26 98.73 23.80 99.13
  C 26.71 99.88 28.61 99.32 30.03 96.54
  Q 32.39 91.92 33.42 86.76
  A 1.31 1.31 0.0 0 1 33.93 85.96
  C 38.84 82.37 41.03 92.33 41.54 94.98
  Q 41.92 96.90 41.13 98.97
  Q 38.61 105.64 35.59 115.02
  C 34.72 117.70 33.91 120.76 36.21 122.94
  C 38.94 125.53 45.36 125.59 47.69 122.18
  C 52.47 115.18 50.89 103.34 48.47 95.75
  C 48.22 94.98 48.42 93.13 48.78 92.12
  Q 52.42 81.89 53.63 71.20
  A 0.31 0.31 0.0 0 1 54.22 71.09
  C 58.20 79.16 59.00 88.87 61.10 97.55
  C 62.31 102.56 64.60 110.59 71.12 109.44
  C 77.62 108.29 78.50 95.48 79.44 90.63
  Q 79.55 90.07 79.87 90.54
  Z
  M 162.45 56.15
  C 162.76 60.07 161.51 61.48 160.57 64.87
  A 0.71 0.71 0.0 0 0 161.78 65.53
  Q 165.30 61.62 164.85 56.23
  A 0.79 0.79 0.0 0 0 164.10 55.51
  L 163.12 55.46
  A 0.65 0.64 -1.2 0 0 162.45 56.15
  Z
  M 151.81 93.59
  Q 158.78 91.12 163.91 84.46
  C 167.97 79.18 165.16 73.58 158.47 74.51
  C 148.30 75.92 143.14 89.24 142.26 97.48
  C 141.50 104.61 143.62 111.92 149.81 115.88
  C 155.79 119.71 163.93 118.85 168.51 112.97
  C 170.52 110.39 173.64 106.46 173.22 102.87
  A 1.21 1.19 -75.8 0 0 172.72 102.02
  C 170.25 100.27 164.24 99.85 165.26 104.74
  C 167.37 114.83 156.13 120.67 152.20 108.76
  Q 149.85 101.65 151.22 94.29
  Q 151.31 93.77 151.81 93.59
  Z"
/>
<path fill="#5e656f" d="
  M 111.75 23.35
  Q 113.17 21.35 114.70 19.46
  C 117.50 16.01 123.02 13.84 126.74 17.26
  C 130.62 20.83 133.61 45.11 130.38 49.10
  Q 128.38 51.56 124.44 49.93
  C 121.99 48.91 122.17 46.12 122.22 43.19
  Q 122.34 34.48 122.80 25.76
  Q 122.99 22.16 121.83 18.83
  A 0.48 0.48 0.0 0 0 121.05 18.64
  C 115.33 24.08 112.52 34.25 111.22 41.34
  A 1.18 1.18 0.0 0 1 110.59 42.17
  Q 107.96 43.45 105.24 42.26
  A 1.12 1.11 -84.1 0 1 104.61 41.48
  C 102.01 29.33 105.63 18.78 102.31 10.33
  Q 102.07 9.73 101.70 10.25
  Q 99.23 13.66 98.25 16.48
  Q 93.49 30.13 91.64 46.19
  Q 91.58 46.71 91.16 47.02
  Q 88.60 48.95 85.70 47.41
  A 1.02 1.02 0.0 0 1 85.15 46.52
  L 84.78 26.49
  A 0.45 0.45 0.0 0 0 83.96 26.25
  Q 83.36 27.16 82.90 28.43
  Q 80.06 36.32 77.33 44.25
  C 75.80 48.69 71.84 53.49 66.79 53.92
  C 54.78 54.97 52.68 38.07 55.21 29.62
  A 0.61 0.61 0.0 0 0 54.88 28.89
  Q 49.92 26.67 47.89 21.65
  Q 47.68 21.15 47.15 21.23
  C 44.61 21.62 41.93 22.29 39.59 22.02
  C 37.50 21.78 32.14 20.52 32.23 17.56
  A 1.15 1.14 -65.8 0 1 34.21 16.80
  Q 39.49 22.43 46.56 18.55
  Q 46.98 18.31 46.91 17.84
  C 45.98 11.64 47.54 2.75 55.72 3.08
  C 60.61 3.28 61.09 6.90 59.30 10.57
  Q 57.15 14.97 53.22 18.02
  Q 52.76 18.37 52.83 18.94
  Q 53.31 23.12 56.36 25.96
  Q 56.79 26.36 57.20 25.94
  C 60.54 22.50 67.92 19.63 72.25 22.86
  A 2.35 2.34 -55.8 0 1 72.84 25.97
  C 70.53 29.72 65.46 30.33 60.96 30.51
  A 0.70 0.69 -85.9 0 0 60.30 31.09
  C 59.38 36.12 60.04 51.20 67.31 51.93
  A 1.39 1.37 -59.9 0 0 68.29 51.66
  C 75.50 46.33 77.99 34.83 81.08 26.56
  C 81.70 24.91 83.17 22.68 85.17 22.72
  C 88.05 22.77 88.29 25.11 89.06 27.27
  Q 89.36 28.12 89.65 27.27
  C 91.50 21.94 95.38 4.06 104.03 6.65
  C 109.38 8.25 110.53 18.41 111.18 23.21
  Q 111.29 24.00 111.75 23.35
  Z
  M 52.7829 13.3058
  A 3.91 1.03 108.6 0 0 55.0062 9.9285
  A 3.91 1.03 108.6 0 0 55.2771 5.8942
  A 3.91 1.03 108.6 0 0 53.0538 9.2715
  A 3.91 1.03 108.6 0 0 52.7829 13.3058
  Z
  M 69.34 23.97
  C 66.48 22.70 63.09 25.41 61.86 27.78
  Q 61.54 28.40 62.23 28.47
  C 64.59 28.73 69.38 28.03 69.83 24.85
  A 0.85 0.83 -74.7 0 0 69.34 23.97
  Z"
/>
<ellipse fill="#ffffff" cx="0.00" cy="0.00" transform="translate(54.03,9.60) rotate(108.6)" rx="3.91" ry="1.03"/>
<path fill="#ffffff" d="
  M 61.86 27.78
  C 63.09 25.41 66.48 22.70 69.34 23.97
  A 0.85 0.83 -74.7 0 1 69.83 24.85
  C 69.38 28.03 64.59 28.73 62.23 28.47
  Q 61.54 28.40 61.86 27.78
  Z"
/>
<path fill="#5e656f" d="
  M 53.16 49.97
  C 54.90 53.82 57.85 55.54 61.80 56.62
  A 0.66 0.66 0.0 0 1 62.29 57.26
  L 62.29 57.77
  A 1.06 1.06 0.0 0 1 60.96 58.80
  Q 54.05 57.02 51.73 50.25
  Q 51.51 49.60 52.18 49.51
  Q 52.31 49.49 52.44 49.49
  Q 52.95 49.51 53.16 49.97
  Z"
/>
<path fill="#5e656f" d="
  M 79.44 90.63
  C 78.50 95.48 77.62 108.29 71.12 109.44
  C 64.60 110.59 62.31 102.56 61.10 97.55
  C 59.00 88.87 58.20 79.16 54.22 71.09
  A 0.31 0.31 0.0 0 0 53.63 71.20
  Q 52.42 81.89 48.78 92.12
  C 48.42 93.13 48.22 94.98 48.47 95.75
  C 50.89 103.34 52.47 115.18 47.69 122.18
  C 45.36 125.59 38.94 125.53 36.21 122.94
  C 33.91 120.76 34.72 117.70 35.59 115.02
  Q 38.61 105.64 41.13 98.97
  Q 41.92 96.90 41.54 94.98
  C 41.03 92.33 38.84 82.37 33.93 85.96
  A 1.31 1.31 0.0 0 0 33.42 86.76
  Q 32.39 91.92 30.03 96.54
  C 28.61 99.32 26.71 99.88 23.80 99.13
  Q 22.26 98.73 22.30 97.13
  C 22.42 92.24 25.26 89.78 26.14 85.50
  Q 28.78 72.61 26.12 59.90
  A 0.57 0.57 0.0 0 0 25.06 59.74
  C 18.04 72.19 17.41 89.75 19.82 103.49
  Q 21.45 112.80 23.40 128.00
  Q 23.60 129.57 23.50 130.68
  Q 23.45 131.24 22.92 131.44
  Q 19.79 132.60 16.73 131.26
  A 1.23 1.22 -86.3 0 1 16.06 130.49
  Q 15.36 128.00 14.97 125.51
  Q 11.12 100.93 8.05 75.99
  A 1.03 1.02 85.0 0 1 9.01 74.84
  Q 12.76 74.63 13.73 78.25
  A 0.41 0.41 0.0 0 0 14.54 78.20
  C 15.34 72.27 17.29 62.80 21.33 58.10
  C 24.64 54.24 29.55 55.47 31.43 60.12
  Q 35.61 70.47 34.17 82.08
  A 0.55 0.55 0.0 0 0 34.76 82.70
  Q 40.99 82.17 44.82 86.86
  Q 45.19 87.31 45.39 86.76
  Q 48.62 77.66 48.58 68.00
  A 1.43 1.42 -68.2 0 0 48.14 66.97
  L 45.83 64.78
  A 1.45 1.45 0.0 0 1 46.50 62.32
  C 52.63 60.85 51.73 65.68 56.52 67.50
  Q 57.95 68.04 60.20 71.56
  Q 62.41 75.04 64.16 82.03
  Q 66.96 93.20 69.87 104.36
  A 0.50 0.50 0.0 0 0 70.82 104.43
  C 73.36 98.38 74.33 91.14 75.77 84.74
  C 77.90 75.30 77.94 56.63 93.03 60.59
  Q 94.96 61.09 96.07 63.03
  C 100.48 70.68 91.59 79.06 85.15 81.26
  Q 84.77 81.39 84.77 81.79
  Q 84.77 87.92 88.87 92.38
  A 0.72 0.72 0.0 0 0 89.73 92.54
  Q 92.31 91.23 94.00 89.00
  Q 100.24 80.75 106.52 72.53
  C 108.04 70.55 110.58 68.40 113.26 68.49
  Q 117.56 68.65 118.42 73.32
  Q 120.30 83.56 120.72 95.75
  Q 120.90 100.74 122.79 106.10
  Q 123.02 106.76 123.54 106.30
  C 130.13 100.55 132.76 84.87 132.61 76.97
  Q 132.60 76.41 132.06 76.29
  Q 127.66 75.34 124.67 72.38
  C 120.94 68.69 121.79 63.48 127.68 63.36
  C 133.44 63.26 135.93 69.46 136.86 74.18
  Q 136.95 74.64 137.42 74.63
  Q 145.17 74.55 148.95 68.74
  Q 153.01 62.50 148.09 57.86
  A 1.75 1.75 0.0 0 1 148.72 54.93
  C 152.17 53.74 159.50 53.67 159.45 58.77
  Q 159.43 60.58 157.98 63.55
  Q 152.07 75.63 137.88 76.72
  Q 137.37 76.76 137.38 77.27
  C 137.56 85.33 135.06 112.89 120.83 110.82
  C 112.54 109.62 112.62 96.89 112.99 90.78
  Q 113.55 81.63 113.52 71.90
  A 0.88 0.88 0.0 0 0 111.99 71.30
  C 106.89 76.82 102.67 84.42 98.48 90.71
  C 94.10 97.28 84.21 97.15 79.87 90.54
  Q 79.55 90.07 79.44 90.63
  Z
  M 85.03 78.44
  C 89.70 75.78 95.17 68.39 90.74 63.30
  A 1.14 1.13 42.7 0 0 88.97 63.37
  Q 84.15 69.92 84.55 78.17
  Q 84.57 78.70 85.03 78.44
  Z
  M 127.97 66.66
  C 126.42 69.13 129.17 72.26 131.27 73.37
  A 0.36 0.36 0.0 0 0 131.79 72.98
  Q 131.07 69.38 128.67 66.61
  Q 128.29 66.16 127.97 66.66
  Z
  M 41.55 114.04
  C 41.38 114.80 41.16 115.67 41.35 116.39
  A 0.14 0.14 0.0 0 0 41.63 116.38
  L 42.05 113.50
  Q 42.12 113.06 41.85 113.41
  Q 41.63 113.70 41.55 114.04
  Z"
/>
<path fill="#5e656f" d="
  M 160.57 64.87
  C 161.51 61.48 162.76 60.07 162.45 56.15
  A 0.65 0.64 -1.2 0 1 163.12 55.46
  L 164.10 55.51
  A 0.79 0.79 0.0 0 1 164.85 56.23
  Q 165.30 61.62 161.78 65.53
  A 0.71 0.71 0.0 0 1 160.57 64.87
  Z"
/>
<path fill="#ffffff" d="
  M 90.74 63.30
  C 95.17 68.39 89.70 75.78 85.03 78.44
  Q 84.57 78.70 84.55 78.17
  Q 84.15 69.92 88.97 63.37
  A 1.14 1.13 42.7 0 1 90.74 63.30
  Z"
/>
<path fill="#ffffff" d="
  M 131.27 73.37
  C 129.17 72.26 126.42 69.13 127.97 66.66
  Q 128.29 66.16 128.67 66.61
  Q 131.07 69.38 131.79 72.98
  A 0.36 0.36 0.0 0 1 131.27 73.37
  Z"
/>
<path fill="#5e656f" d="
  M 151.22 94.29
  Q 149.85 101.65 152.20 108.76
  C 156.13 120.67 167.37 114.83 165.26 104.74
  C 164.24 99.85 170.25 100.27 172.72 102.02
  A 1.21 1.19 -75.8 0 1 173.22 102.87
  C 173.64 106.46 170.52 110.39 168.51 112.97
  C 163.93 118.85 155.79 119.71 149.81 115.88
  C 143.62 111.92 141.50 104.61 142.26 97.48
  C 143.14 89.24 148.30 75.92 158.47 74.51
  C 165.16 73.58 167.97 79.18 163.91 84.46
  Q 158.78 91.12 151.81 93.59
  Q 151.31 93.77 151.22 94.29
  Z
  M 159.63 77.09
  C 155.54 79.55 153.18 84.83 152.24 89.25
  A 0.42 0.42 0.0 0 0 152.87 89.70
  C 156.00 87.77 164.99 81.32 160.51 77.18
  A 0.75 0.74 -38.6 0 0 159.63 77.09
  Z"
/>
<path fill="#ffffff" d="
  M 152.24 89.25
  C 153.18 84.83 155.54 79.55 159.63 77.09
  A 0.75 0.74 -38.6 0 1 160.51 77.18
  C 164.99 81.32 156.00 87.77 152.87 89.70
  A 0.42 0.42 0.0 0 1 152.24 89.25
  Z"
/>
<path fill="#ffffff" d="
  M 41.55 114.04
  Q 41.63 113.70 41.85 113.41
  Q 42.12 113.06 42.05 113.50
  L 41.63 116.38
  A 0.14 0.14 0.0 0 1 41.35 116.39
  C 41.16 115.67 41.38 114.80 41.55 114.04
  Z"
/>
</svg>
